<?xml version="1.0" encoding="UTF-8" standalone="no"?>
<!-- Created with Inkscape (http://www.inkscape.org/) -->

<svg
   width="256"
   height="256"
   viewBox="0 0 67.733332 67.733333"
   version="1.1"
   id="svg1"
   inkscape:version="1.3.2 (091e20e, 2023-11-25, custom)"
   sodipodi:docname="logo.svg"
   xmlns:inkscape="http://www.inkscape.org/namespaces/inkscape"
   xmlns:sodipodi="http://sodipodi.sourceforge.net/DTD/sodipodi-0.dtd"
   xmlns:xlink="http://www.w3.org/1999/xlink"
   xmlns="http://www.w3.org/2000/svg"
   xmlns:svg="http://www.w3.org/2000/svg">
  <sodipodi:namedview
     id="namedview1"
     pagecolor="#ffffff"
     bordercolor="#000000"
     borderopacity="0.25"
     inkscape:showpageshadow="2"
     inkscape:pageopacity="0.0"
     inkscape:pagecheckerboard="0"
     inkscape:deskcolor="#d1d1d1"
     inkscape:document-units="px"
     inkscape:zoom="1.0137907"
     inkscape:cx="36.989884"
     inkscape:cy="114.91524"
     inkscape:window-width="1366"
     inkscape:window-height="745"
     inkscape:window-x="-8"
     inkscape:window-y="-8"
     inkscape:window-maximized="1"
     inkscape:current-layer="layer1" />
  <defs
     id="defs1">
    <linearGradient
       id="linearGradient4"
       inkscape:collect="always">
      <stop
         style="stop-color:#ffd6a5;stop-opacity:1;"
         offset="0"
         id="stop3" />
      <stop
         style="stop-color:#ff9b9b;stop-opacity:0.5;"
         offset="1"
         id="stop4" />
    </linearGradient>
    <linearGradient
       id="linearGradient1"
       inkscape:collect="always">
      <stop
         style="stop-color:#ff9b9b;stop-opacity:1;"
         offset="0"
         id="stop1" />
      <stop
         style="stop-color:#ff9b9b;stop-opacity:0;"
         offset="1"
         id="stop2" />
    </linearGradient>
    <linearGradient
       inkscape:collect="always"
       xlink:href="#linearGradient1"
       id="linearGradient2"
       x1="33.866665"
       y1="0"
       x2="33.866665"
       y2="67.73333"
       gradientUnits="userSpaceOnUse" />
    <linearGradient
       inkscape:collect="always"
       xlink:href="#linearGradient4"
       id="linearGradient3"
       gradientUnits="userSpaceOnUse"
       x1="0"
       y1="67.73333"
       x2="70.404449"
       y2="-5.6032238" />
    <linearGradient
       inkscape:collect="always"
       xlink:href="#linearGradient6"
       id="linearGradient5"
       gradientUnits="userSpaceOnUse"
       x1="67.73333"
       y1="67.73333"
       x2="0"
       y2="0"
       gradientTransform="translate(2.1264648e-6)" />
    <linearGradient
       id="linearGradient6"
       inkscape:collect="always">
      <stop
         style="stop-color:#cbffa9;stop-opacity:1;"
         offset="0"
         id="stop5" />
      <stop
         style="stop-color:#ff9b9b;stop-opacity:0.5;"
         offset="1"
         id="stop6" />
    </linearGradient>
  </defs>
  <g
     inkscape:label="Слой 1"
     inkscape:groupmode="layer"
     id="layer1">
    <circle
       style="fill:url(#linearGradient2);stroke-width:1.20153;fill-opacity:1"
       id="path1-3"
       cx="33.866665"
       cy="33.866665"
       r="33.866665" />
    <circle
       style="fill:url(#linearGradient3);fill-opacity:1;stroke-width:1.20153"
       id="path1-3-7"
       cx="33.866665"
       cy="33.866665"
       r="33.866665" />
    <circle
       style="fill:url(#linearGradient5);fill-opacity:1;stroke-width:1.20153"
       id="path1-3-7-5"
       cx="33.866665"
       cy="33.866665"
       r="33.866665" />
    <path
       d="m 35.277779,52.740288 q -5.78556,0 -10.160007,-2.39889 -4.374448,-2.469446 -6.843894,-6.702783 -2.469446,-4.303891 -2.469446,-9.807228 0,-5.503337 2.328335,-9.736674 2.39889,-4.233336 6.491115,-6.632226 4.162781,-2.469446 9.31334,-2.469446 5.221115,0 9.242784,2.39889 4.092225,2.328335 6.42056,6.632227 2.328335,4.233336 2.328335,9.807229 0,0.352778 -0.07056,0.776111 0,0.352778 0,0.776112 h -32.24391 v -3.739447 h 29.562797 l -1.975557,1.481668 q 0,-4.02167 -1.76389,-7.126116 -1.693334,-3.175002 -4.656669,-4.938893 -2.963336,-1.76389 -6.843894,-1.76389 -3.810002,0 -6.843893,1.76389 -3.033891,1.763891 -4.727226,4.938893 -1.693334,3.175002 -1.693334,7.267227 v 0.776111 q 0,4.233337 1.834445,7.478894 1.905002,3.175002 5.221115,5.009448 3.386669,1.76389 7.690561,1.76389 3.386669,0 6.279448,-1.199445 2.963336,-1.199445 5.080004,-3.668891 l 2.822224,3.245557 q -2.469446,2.963336 -6.208893,4.515559 -3.668891,1.552223 -8.113894,1.552223 z"
       id="text2"
       style="-inkscape-font-specification:Montserrat;fill:#ffffff;stroke-width:6.61458;stroke-linecap:round;stroke-linejoin:round"
       aria-label="e" />
  </g>
</svg>
