<?xml version="1.0" encoding="UTF-8" standalone="no"?>
<!-- Uploaded to: SVG Repo, www.svgrepo.com, Generator: SVG Repo Mixer Tools -->

<svg
   width="800px"
   height="800px"
   viewBox="0 -0.5 25 25"
   fill="none"
   version="1.1"
   id="svg1"
   sodipodi:docname="sparkles.svg"
   inkscape:version="1.3.2 (091e20e, 2023-11-25, custom)"
   xml:space="preserve"
   xmlns:inkscape="http://www.inkscape.org/namespaces/inkscape"
   xmlns:sodipodi="http://sodipodi.sourceforge.net/DTD/sodipodi-0.dtd"
   xmlns="http://www.w3.org/2000/svg"
   xmlns:svg="http://www.w3.org/2000/svg"><defs
     id="defs1" /><sodipodi:namedview
     id="namedview1"
     pagecolor="#ffffff"
     bordercolor="#000000"
     borderopacity="0.25"
     inkscape:showpageshadow="2"
     inkscape:pageopacity="0.0"
     inkscape:pagecheckerboard="0"
     inkscape:deskcolor="#d1d1d1"
     inkscape:zoom="0.4711099"
     inkscape:cx="345.99146"
     inkscape:cy="710.02541"
     inkscape:window-width="1680"
     inkscape:window-height="1027"
     inkscape:window-x="-8"
     inkscape:window-y="-8"
     inkscape:window-maximized="1"
     inkscape:current-layer="svg1" /><circle
     style="fill:#abff74;stroke-width:0.78125;stroke-linecap:round;stroke-linejoin:round;fill-opacity:1"
     id="path2"
     cx="12.5"
     cy="12"
     r="12.5" /><path
     style="fill:#008000;stroke-width:0.863807;fill-opacity:1"
     d="m 18.466973,20.933228 c -0.202191,-0.08005 -0.388685,-0.258874 -0.482997,-0.463124 -0.07725,-0.167292 -0.07868,-0.178973 -0.08724,-0.713963 l -0.0087,-0.543889 -0.54467,-0.01023 c -0.531465,-0.01 -0.548758,-0.01209 -0.713314,-0.08738 -0.57137,-0.261387 -0.709549,-0.99927 -0.270342,-1.443634 0.225755,-0.228406 0.398562,-0.272836 1.061177,-0.272836 h 0.471064 l 3.21e-4,-0.49264 c 4.25e-4,-0.653683 0.04181,-0.811271 0.274403,-1.04503 0.412556,-0.414614 1.147742,-0.30088 1.413656,0.218694 0.08944,0.174765 0.119776,0.400673 0.120012,0.893821 l 2.04e-4,0.425155 h 0.471066 c 0.259086,0 0.535436,0.01363 0.614113,0.0303 0.574316,0.121645 0.867728,0.764334 0.588295,1.288605 -0.100299,0.188179 -0.244917,0.322022 -0.447399,0.414066 -0.120301,0.05469 -0.184047,0.06136 -0.676349,0.07072 l -0.543529,0.01035 -0.01232,0.53041 c -0.01085,0.467284 -0.01952,0.549008 -0.07291,0.686671 -0.07221,0.186209 -0.255431,0.380698 -0.448915,0.476533 -0.187281,0.09276 -0.50898,0.105255 -0.705624,0.0274 z m -7.940821,-1.755543 c -0.238512,-0.04687 -0.446513,-0.188974 -0.5836219,-0.398714 -0.03544,-0.05422 -0.397988,-0.942815 -0.805655,-1.974659 -0.407666,-1.031844 -0.768088,-1.935487 -0.800937,-2.008096 -0.100052,-0.221158 -0.241238,-0.348984 -0.520709,-0.471438 -0.13666,-0.05988 -1.035054,-0.419081 -1.996432,-0.798228 -0.961378,-0.379146 -1.796182,-0.713958 -1.855118,-0.744024 -0.153414,-0.07827 -0.293675,-0.22884 -0.375296,-0.402889 -0.05892,-0.125645 -0.07072,-0.189077 -0.07072,-0.380251 0,-0.191508 0.01166,-0.253998 0.07053,-0.377915 0.08033,-0.169107 0.232785,-0.331809 0.383095,-0.408856 0.05648,-0.02896 0.937165,-0.381462 1.957062,-0.783351 1.019897,-0.401888 1.921897,-0.7647309 2.004444,-0.8063159 0.176685,-0.08901 0.33131,-0.250513 0.408197,-0.426354 0.03032,-0.06933 0.388563,-0.970288 0.796107,-2.002133 0.407544,-1.031844 0.772042,-1.923545 0.809997,-1.981559 0.1016049,-0.155302 0.1908809,-0.229989 0.3839709,-0.32122 0.41857,-0.197767 0.937993,-0.02341 1.14966,0.385908 0.02471,0.04777 0.376817,0.927898 0.782475,1.955839 0.405658,1.027939 0.768093,1.928621 0.805412,2.001513 0.105757,0.206572 0.267007,0.341236 0.558288,0.466241 0.141044,0.06053 1.033868,0.4152969 1.984056,0.7883739 0.950187,0.373076 1.778038,0.707304 1.839668,0.742727 0.282694,0.162486 0.467667,0.52521 0.430237,0.843677 -0.03284,0.279448 -0.194374,0.546979 -0.411608,0.681717 -0.0469,0.02909 -0.927576,0.385489 -1.957062,0.792001 -1.029487,0.406511 -1.93985,0.770695 -2.023031,0.809295 -0.207676,0.09638 -0.340405,0.234459 -0.446878,0.464905 -0.0496,0.107346 -0.410762,1.007741 -0.802587,2.000878 -0.391825,0.993136 -0.737155,1.854208 -0.7674,1.913492 -0.06408,0.125595 -0.22855,0.281843 -0.375719,0.356923 -0.08665,0.04421 -0.385914,0.11857 -0.437221,0.108644 -0.0084,-0.0016 -0.06835,-0.01339 -0.133205,-0.02613 z m 0.53726,-4.262951 c 0.360603,-0.90936 0.474743,-1.143736 0.698709,-1.434721 0.352213,-0.457609 0.743755,-0.686183 2.033085,-1.186875 0.396923,-0.154141 0.721652,-0.286328 0.721619,-0.293752 -3.2e-5,-0.0074 -0.355155,-0.152952 -0.789164,-0.323398 -1.165884,-0.457873 -1.389343,-0.574704 -1.727112,-0.902986 -0.389452,-0.378514 -0.501253,-0.580661 -0.949037,-1.7159569 -0.172747,-0.437977 -0.323954,-0.820125 -0.336013,-0.849217 -0.01673,-0.04036 -0.09751,0.138798 -0.34081,0.755831 -0.4533179,1.1496729 -0.5650779,1.3631749 -0.8986859,1.7168159 -0.374189,0.396661 -0.586737,0.514105 -1.780971,0.984084 -0.449083,0.176732 -0.816515,0.327405 -0.816515,0.334827 0,0.0074 0.367432,0.158084 0.816515,0.334801 1.130752,0.444957 1.373147,0.57266 1.705387,0.898455 0.365119,0.358039 0.505303,0.617889 0.9765389,1.810149 0.240688,0.608954 0.321811,0.788365 0.338292,0.748154 0.01192,-0.02909 0.168596,-0.423387 0.348162,-0.876211 z m 7.560929,-6.5338549 c -0.280922,-0.05706 -0.51229,-0.239316 -0.643818,-0.50715 -0.07359,-0.14985 -0.07526,-0.163967 -0.08416,-0.711081 l -0.0091,-0.558196 -0.557792,-0.0087 c -0.545208,-0.0085 -0.561196,-0.01035 -0.708663,-0.08277 -0.1797,-0.08825 -0.344481,-0.247356 -0.426715,-0.412014 -0.170526,-0.341443 -0.09535,-0.784158 0.177093,-1.042938 0.225514,-0.214204 0.43605,-0.266054 1.0803,-0.266054 h 0.440442 v -0.508076 c 0,-0.558644 0.02188,-0.674974 0.167098,-0.888342 0.314891,-0.462672 0.988644,-0.51111 1.383097,-0.09943 0.205433,0.214401 0.237848,0.33807 0.252337,0.962722 l 0.01237,0.53313 h 0.437291 c 0.501058,0 0.703755,0.02948 0.887717,0.129113 0.366413,0.198444 0.547393,0.693851 0.398043,1.089587 -0.100462,0.266195 -0.315887,0.462488 -0.609106,0.555007 -0.07069,0.0223 -0.282738,0.03421 -0.614112,0.03448 l -0.506137,4.09e-4 -2.04e-4,0.425156 c -3.17e-4,0.662392 -0.04836,0.856714 -0.271721,1.099031 -0.185532,0.201279 -0.531623,0.311481 -0.804277,0.256098 z"
     id="path3" /></svg>
