<?xml version="1.0" encoding="UTF-8" standalone="no"?>
<!-- Uploaded to: SVG Repo, www.svgrepo.com, Generator: SVG Repo Mixer Tools -->

<svg
   width="800px"
   height="800px"
   viewBox="0 -0.5 25 25"
   fill="none"
   version="1.1"
   id="svg1"
   sodipodi:docname="translate.svg"
   inkscape:version="1.3.2 (091e20e, 2023-11-25, custom)"
   xml:space="preserve"
   xmlns:inkscape="http://www.inkscape.org/namespaces/inkscape"
   xmlns:sodipodi="http://sodipodi.sourceforge.net/DTD/sodipodi-0.dtd"
   xmlns="http://www.w3.org/2000/svg"
   xmlns:svg="http://www.w3.org/2000/svg"><defs
     id="defs1" /><sodipodi:namedview
     id="namedview1"
     pagecolor="#ffffff"
     bordercolor="#000000"
     borderopacity="0.25"
     inkscape:showpageshadow="2"
     inkscape:pageopacity="0.0"
     inkscape:pagecheckerboard="0"
     inkscape:deskcolor="#d1d1d1"
     inkscape:zoom="0.4711099"
     inkscape:cx="345.99146"
     inkscape:cy="710.02541"
     inkscape:window-width="1680"
     inkscape:window-height="1027"
     inkscape:window-x="-8"
     inkscape:window-y="-8"
     inkscape:window-maximized="1"
     inkscape:current-layer="svg1" /><circle
     style="fill:#abff74;stroke-width:0.78125;stroke-linecap:round;stroke-linejoin:round;fill-opacity:1"
     id="path2"
     cx="12.5"
     cy="12"
     r="12.5" /><path
     style="fill:#008000;stroke-width:1.28015;fill-opacity:1"
     d="m 14.620743,20.957951 c -0.396934,-0.07943 -0.721861,-0.455647 -0.751873,-0.870553 -0.03558,-0.491741 0.09648,-0.689364 0.783037,-1.171797 0.689346,-0.484399 0.945634,-0.69799 1.375012,-1.145947 0.790294,-0.824481 1.154116,-1.676914 1.154116,-2.704088 0,-0.880018 -0.22982,-1.557067 -0.74184,-2.185452 -0.206583,-0.253536 -0.730566,-0.700081 -0.821482,-0.700081 -0.025,0 -0.113252,0.189021 -0.196112,0.420048 -0.92488,2.578786 -2.678279,4.596476 -4.536466,5.22025 C 9.6088625,18.248761 8.226976,18.115125 7.2599052,17.469752 6.6580906,17.068131 6.1406108,16.344643 5.9582118,15.649857 5.4561757,13.737523 6.5394685,11.672155 8.7209242,10.38257 8.9404808,10.252777 9.1272745,10.1409 9.1360215,10.133954 c 0.0087,-0.0069 0.06739,-0.3744724 0.130297,-0.8167234 0.06292,-0.442252 0.156549,-0.991378 0.208075,-1.220281 0.05152,-0.228903 0.0844,-0.425468 0.07306,-0.43681 -0.0114,-0.0114 -0.6752765,-0.02062 -1.4754073,-0.02062 -1.5926553,0 -1.5927948,-1.8e-5 -1.8675269,-0.241237 -0.2328742,-0.204466 -0.3223962,-0.409633 -0.3223962,-0.738875 0,-0.3270721 0.089469,-0.5343673 0.3167927,-0.7339561 C 6.4825898,5.6763824 6.4565528,5.679296 8.3986469,5.679296 H 10.16769 l 0.210544,-0.5900709 c 0.553183,-1.5503425 0.683599,-1.8045565 1.016008,-1.9804588 0.234691,-0.1241869 0.697679,-0.1241869 0.932369,0 0.333051,0.1762415 0.573372,0.6276133 0.518121,0.973135 -0.01343,0.083991 -0.141383,0.4636585 -0.284339,0.8437006 -0.142953,0.3800421 -0.259916,0.7050942 -0.259916,0.7223389 0,0.017243 1.080319,0.031351 2.400709,0.031351 2.363659,0 2.403498,0.00128 2.581388,0.084925 0.493193,0.2318281 0.707218,0.8677547 0.45707,1.3580838 -0.08152,0.159793 -0.309412,0.376527 -0.473045,0.449883 -0.0765,0.0343 -0.865207,0.05283 -2.864249,0.06732 l -2.758683,0.02001 -0.07047,0.231516 c -0.08154,0.267824 -0.253103,1.074312 -0.292112,1.373079 l -0.02669,0.204435 0.233011,-0.04149 c 0.345396,-0.06151 1.975657,-0.05823 2.30781,0.0046 l 0.27459,0.05197 0.175834,-0.178352 c 0.383454,-0.38895 0.994452,-0.403559 1.390283,-0.03325 0.149433,0.139802 0.304089,0.469531 0.304585,0.649382 3.66e-4,0.1327314 0.01493,0.1487504 0.230416,0.2534984 0.385045,0.187167 1.005405,0.625507 1.35918,0.960388 0.793904,0.751496 1.291076,1.647961 1.540431,2.777593 0.114919,0.520611 0.124674,1.688644 0.0185,2.217203 -0.334678,1.66629 -1.348165,3.052175 -3.168141,4.33226 -0.707262,0.497452 -0.908128,0.574015 -1.30015,0.495567 z M 9.7521505,16.050474 c 0.0092,-0.0165 -0.05364,-0.273031 -0.139574,-0.570064 -0.204896,-0.708154 -0.377327,-1.571495 -0.465146,-2.328929 l -0.07089,-0.611407 -0.2728132,0.26003 c -0.6030575,0.574799 -0.9812255,1.315621 -0.9831675,1.926006 -3.251e-4,0.102204 0.035319,0.302079 0.079215,0.444188 0.1386155,0.448784 0.4815872,0.742071 1.0003177,0.855403 0.247128,0.054 0.826443,0.07083 0.852059,0.02477 z m 2.1700795,-1.32015 c 0.169315,-0.192522 0.432807,-0.530059 0.585537,-0.750085 0.515566,-0.74273 1.291581,-2.454561 1.151859,-2.540913 -0.179033,-0.110643 -1.662686,-0.09491 -2.249249,0.02387 l -0.350039,0.07088 4.28e-4,0.382988 c 4.76e-4,0.42594 0.08515,1.28258 0.178213,1.803153 0.08748,0.489332 0.307986,1.360155 0.344403,1.360155 0.01705,0 0.169533,-0.157518 0.338848,-0.350042 z"
     id="path1"
     sodipodi:nodetypes="csssssssssssssssssssscssssssscssccsscsccsssssscsccscscsssssssssscssss" /></svg>
